<svg xmlns="http://www.w3.org/2000/svg" width="50.6" height="99.9" viewBox="0 0 50.6 99.9"><path fill="#b4fff4" d="M46.1 74l-7.4-12.2a53.6 53.6 0 0 0 2.4-15.1v-2c-.8-13.6-6-18.4-9.9-22.4a16.9 16.9 0 0 1-4.3-5.7h-.1a5.8 5.8 0 0 0 1.7-.5 2.5 2.5 0 0 0 1.1-2.1l-.2-.5a5.7 5.7 0 0 0-2.8-.6 11.2 11.2 0 0 1 0-2.6c.1-.5.1-.5.8-.5h.1a1.1 1.1 0 0 0 .8-.6c.3-.5-.1-1.1-.3-1.5h-.1v-.4a18.5 18.5 0 0 1-1.5-5.4c0-1.3-.4-1.7-.6-1.8H25c-.1.1-.5.3-.5 1.8s-.3 2.1-1.6 5.5h-.2a3.6 3.6 0 0 0-.4 1.1c0 .2.1.3.1.4a1.3 1.3 0 0 0 .8.6h.2c.6 0 .6 0 .7.5a9.2 9.2 0 0 1 .1 1.6 3.1 3.1 0 0 1-.1 1 5.2 5.2 0 0 0-2.7.6l-.3.5a2.5 2.5 0 0 0 1.1 2.3 6.9 6.9 0 0 0 1.7.5c0 .1 0 .1-.1.1-.9 2.3-2.6 3.9-4.4 5.8-4 3.9-9.2 8.8-9.9 22.3a13.4 13.4 0 0 0-.1 2 57.4 57.4 0 0 0 2.4 15.1L4.5 74 0 99.9h5l4.8-16.5 7.9-6.6h.3l.8.3c.2.8.3 1.7.4 2.2s.3 1.4 4 1.7v18.9h4.2V81.1c3.8-.2 4-1.2 4.1-1.7s.3-1.4.4-2.2l.9-.3h.1l7.9 6.5 4.7 16.5h5.1z"/></svg>